<?xml version="1.0" encoding="UTF-8" standalone="no"?>
<svg
   xmlns:dc="http://purl.org/dc/elements/1.1/"
   xmlns:cc="http://creativecommons.org/ns#"
   xmlns:rdf="http://www.w3.org/1999/02/22-rdf-syntax-ns#"
   xmlns:svg="http://www.w3.org/2000/svg"
   xmlns="http://www.w3.org/2000/svg"
   xmlns:sodipodi="http://sodipodi.sourceforge.net/DTD/sodipodi-0.dtd"
   xmlns:inkscape="http://www.inkscape.org/namespaces/inkscape"
   id="svg"
   version="1.1"
   width="400"
   height="378.7857641311933"
   style="display: block;"
   sodipodi:docname="logo.svg"
   inkscape:version="0.92.2 (5c3e80d, 2017-08-06)">
  <metadata
     id="metadata21">
    <rdf:RDF>
      <cc:Work
         rdf:about="">
        <dc:format>image/svg+xml</dc:format>
        <dc:type
           rdf:resource="http://purl.org/dc/dcmitype/StillImage" />
        <dc:title></dc:title>
      </cc:Work>
    </rdf:RDF>
  </metadata>
  <defs
     id="defs19" />
  <sodipodi:namedview
     pagecolor="#ffffff"
     bordercolor="#666666"
     borderopacity="1"
     objecttolerance="10"
     gridtolerance="10"
     guidetolerance="10"
     inkscape:pageopacity="0"
     inkscape:pageshadow="2"
     inkscape:window-width="1920"
     inkscape:window-height="1057"
     id="namedview17"
     showgrid="false"
     inkscape:zoom="0.62304347"
     inkscape:cx="200"
     inkscape:cy="189.39288"
     inkscape:window-x="1912"
     inkscape:window-y="6"
     inkscape:window-maximized="1"
     inkscape:current-layer="svg" />
  <g
     id="svgg">
    <path
       id="path0"
       d="M185.345 100.396 C 141.662 104.734,108.477 136.354,103.225 178.646 C 96.643 231.649,143.677 280.446,198.487 277.479 C 238.926 275.289,266.104 254.598,276.602 218.008 C 277.816 213.777,278.155 211.331,277.009 215.073 C 266.598 249.067,240.313 267.385,201.914 267.408 C 155.672 267.436,116.074 227.622,119.166 184.209 C 122.665 135.096,170.172 101.340,220.237 112.393 C 248.193 118.565,272.423 140.605,280.002 166.756 C 280.354 167.969,280.688 168.823,280.745 168.652 C 281.014 167.846,278.306 159.401,276.163 154.361 C 261.265 119.333,223.089 96.648,185.345 100.396 "
       stroke="none"
       fill="#540d6e"
       fill-rule="evenodd" />
    <path
       id="path1"
       d=""
       stroke="none"
       fill="#bf1f1f"
       fill-rule="evenodd" />
    <path
       id="path2"
       d="M314.306 192.045 C 314.306 193.785,314.370 195.144,314.449 195.065 C 314.647 194.867,314.663 189.238,314.465 189.041 C 314.378 188.953,314.306 190.305,314.306 192.045 "
       stroke="none"
       fill="#ff003f"
       fill-rule="evenodd" />
    <path
       id="path3"
       d=""
       stroke="none"
       fill="#ff0000"
       fill-rule="evenodd" />
    <path
       id="path4"
       d=""
       stroke="none"
       fill="#fe1c54"
       fill-rule="evenodd" />
    <path
       id="path5"
       d=""
       stroke="none"
       fill="#fe2865"
       fill-rule="evenodd" />
    <path
       id="path6"
       d=""
       stroke="none"
       fill="#ff2448"
       fill-rule="evenodd" />
    <path
       id="path7"
       d=""
       stroke="none"
       fill="#ff2a55"
       fill-rule="evenodd" />
    <path
       id="path8"
       d="M193.022 72.488 C 144.122 74.570,101.048 108.704,87.407 156.183 C 85.729 162.022,85.754 162.911,87.453 157.851 C 105.070 105.383,159.068 75.641,213.144 88.621 C 250.878 97.679,280.825 127.026,290.147 164.083 C 292.244 172.419,293.179 179.935,292.938 186.533 C 292.672 193.846,292.662 195.111,292.870 195.184 C 292.981 195.223,292.948 196.511,292.796 198.046 C 287.678 249.770,240.166 291.958,187.020 291.970 C 138.427 291.982,103.948 267.907,91.283 225.122 C 89.847 220.273,89.894 220.411,89.745 220.559 C 89.249 221.056,93.833 235.880,96.311 241.790 C 113.519 282.834,149.104 305.141,197.488 305.213 C 258.540 305.303,311.882 254.009,313.942 193.231 C 314.036 190.429,314.194 188.137,314.292 188.137 C 314.512 188.137,314.438 184.389,314.210 184.021 C 314.119 183.874,313.909 182.008,313.744 179.874 C 308.868 117.037,255.783 69.817,193.022 72.488 "
       stroke="none"
       fill="#ff3366"
       fill-rule="evenodd" />
    <path
       id="path9"
       d="M314.130 191.207 C 314.130 192.819,314.176 193.479,314.232 192.673 C 314.289 191.867,314.289 190.548,314.232 189.742 C 314.176 188.936,314.130 189.595,314.130 191.207 "
       stroke="none"
       fill="#ff2c5e"
       fill-rule="evenodd" />
    <path
       id="path10"
       d=""
       stroke="none"
       fill="#ff2b65"
       fill-rule="evenodd" />
    <path
       id="path11"
       d=""
       stroke="none"
       fill="#ff2c61"
       fill-rule="evenodd" />
    <path
       id="path12"
       d="M180.776 0.299 C 69.909 6.026,-12.269 103.731,1.544 213.398 C 12.030 296.660,77.393 363.446,161.061 376.388 C 246.295 389.573,330.304 343.977,364.834 265.790 C 367.360 260.070,367.218 259.660,364.583 265.068 C 337.089 321.499,281.598 359.070,216.748 365.160 C 211.490 365.654,189.846 365.659,185.066 365.168 C 134.524 359.974,92.505 338.374,61.071 301.426 C 0.356 230.063,7.535 123.480,77.305 60.436 C 166.648 -20.295,308.941 5.103,363.475 111.514 C 367.168 118.719,367.658 119.280,364.971 113.226 C 332.982 41.155,259.693 -3.778,180.776 0.299 "
       stroke="none"
       fill="#f6f7f8"
       fill-rule="evenodd" />
  </g>
</svg>
